<svg width="16" height="16" viewBox="0 0 16 16" fill="none" xmlns="http://www.w3.org/2000/svg">
<path d="M1 14C0.734784 14 0.48043 13.9209 0.292893 13.7803C0.105357 13.6397 0 13.4489 0 13.25V2.75C0 2.55109 0.105357 2.36032 0.292893 2.21967C0.48043 2.07902 0.734784 2 1 2H15C15.2652 2 15.5196 2.07902 15.7071 2.21967C15.8946 2.36032 16 2.55109 16 2.75V13.25C16 13.4489 15.8946 13.6397 15.7071 13.7803C15.5196 13.9209 15.2652 14 15 14H1ZM1 11H7V5H1V11ZM9 5V11H15V5H9ZM1 13.25H3V11.75H1V13.25ZM4 11.75V13.25H6V11.75H4ZM7 13.25H9V11.75H7V13.25ZM10 11.75V13.25H12V11.75H10ZM13 13.25H15V11.75H13V13.25ZM1 2.75V4.25H3V2.75H1ZM4 4.25H6V2.75H4V4.25ZM7 2.75V4.25H9V2.75H7ZM10 4.25H12V2.75H10V4.25ZM13 2.75V4.25H15V2.75H13Z" fill="#2F2E41"/>
</svg>
