<svg width="512" height="512" viewBox="0 0 512 512" fill="none" xmlns="http://www.w3.org/2000/svg">
<path d="M350.54 148.68L323.92 106.62C318.31 100.08 310.62 96 302 96H210C201.38 96 193.69 100.08 188.08 106.62L161.46 148.68C155.85 155.23 148.62 160 140 160H80C71.5131 160 63.3737 163.371 57.3726 169.373C51.3714 175.374 48 183.513 48 192V384C48 392.487 51.3714 400.626 57.3726 406.627C63.3737 412.629 71.5131 416 80 416H432C440.487 416 448.626 412.629 454.627 406.627C460.629 400.626 464 392.487 464 384V192C464 183.513 460.629 175.374 454.627 169.373C448.626 163.371 440.487 160 432 160H373C364.35 160 356.15 155.23 350.54 148.68Z" stroke="#2F2E41" stroke-width="32" stroke-linecap="round" stroke-linejoin="round"/>
<path d="M256 352C300.183 352 336 316.183 336 272C336 227.817 300.183 192 256 192C211.817 192 176 227.817 176 272C176 316.183 211.817 352 256 352Z" stroke="#2F2E41" stroke-width="32" stroke-miterlimit="10"/>
<path d="M124 158V136H100V158" stroke="#2F2E41" stroke-width="32" stroke-linecap="round" stroke-linejoin="round"/>
</svg>
