<svg width="512" height="512" viewBox="0 0 512 512" fill="none" xmlns="http://www.w3.org/2000/svg">
<path d="M374.79 308.78L457.5 367C459.936 368.083 462.604 368.54 465.262 368.33C467.919 368.12 470.482 367.249 472.718 365.796C474.953 364.344 476.79 362.356 478.062 360.013C479.334 357.67 480 355.046 480 352.38V159.62C480 156.954 479.334 154.33 478.062 151.987C476.79 149.644 474.953 147.656 472.718 146.204C470.482 144.751 467.919 143.88 465.262 143.67C462.604 143.46 459.936 143.917 457.5 145L374.79 203.22C372.693 204.696 370.981 206.655 369.799 208.932C368.618 211.208 368.001 213.735 368 216.3V295.7C368.001 298.265 368.618 300.792 369.799 303.068C370.981 305.345 372.693 307.304 374.79 308.78V308.78Z" stroke="#2F2E41" stroke-width="32" stroke-linecap="round" stroke-linejoin="round"/>
<path d="M268 384H84C70.2209 383.96 57.0175 378.469 47.2742 368.726C37.5308 358.983 32.0396 345.779 32 332V180C32.0396 166.221 37.5308 153.017 47.2742 143.274C57.0175 133.531 70.2209 128.04 84 128H268.48C282.131 128.042 295.211 133.484 304.864 143.136C314.516 152.789 319.958 165.869 320 179.52V332C319.96 345.779 314.469 358.983 304.726 368.726C294.983 378.469 281.779 383.96 268 384Z" stroke="#2F2E41" stroke-width="32" stroke-miterlimit="10"/>
</svg>
